<?xml version="1.0" encoding="UTF-8"?>
<!DOCTYPE svg PUBLIC "-//W3C//DTD SVG 1.1//EN" "http://www.w3.org/Graphics/SVG/1.1/DTD/svg11.dtd">
<!-- Creator: CorelDRAW X7 -->
<svg xmlns="http://www.w3.org/2000/svg" xml:space="preserve" width="8.5in" height="11in" version="1.1" style="shape-rendering:geometricPrecision; text-rendering:geometricPrecision; image-rendering:optimizeQuality; fill-rule:evenodd; clip-rule:evenodd"
viewBox="0 0 8500 11000"
 xmlns:xlink="http://www.w3.org/1999/xlink">
 <defs>
  <style type="text/css">
   <![CDATA[
    .str0 {stroke:#373435;stroke-width:7.87402}
    .fil1 {fill:none;fill-rule:nonzero}
    .fil2 {fill:#FFCC29;fill-rule:nonzero}
    .fil3 {fill:url(#id0)}
    .fil0 {fill:url(#id1)}
   ]]>
  </style>
  <linearGradient id="id0" gradientUnits="userSpaceOnUse" x1="1073.11" y1="3974.5" x2="6497.71" y2="9696.42">
   <stop offset="0" style="stop-opacity:1; stop-color:#727376"/>
   <stop offset="0.309804" style="stop-opacity:1; stop-color:#FEFEFE"/>
   <stop offset="1" style="stop-opacity:1; stop-color:#96989A"/>
  </linearGradient>
  <radialGradient id="id1" gradientUnits="userSpaceOnUse" gradientTransform="matrix(-0.00283367 1.53512 -1.08792 0.00515152 8200 -2189)" cx="3950.76" cy="3895.63" r="5846.46" fx="3950.76" fy="3895.63">
   <stop offset="0" style="stop-opacity:1; stop-color:#17688F"/>
   <stop offset="1" style="stop-opacity:1; stop-color:#1F2327"/>
  </radialGradient>
 </defs>
 <g id="Layer_x0020_1">
  <metadata id="CorelCorpID_0Corel-Layer"/>
  <polygon class="fil0" points="7919,-314 -348,-314 -348,11379 7919,11379 "/>
  <polygon class="fil1 str0" points="-348,-314 7919,-314 7919,11379 -348,11379 "/>
  <g id="_425867104">
   <image x="532" y="324" width="6989" height="9367" xlink:href="book2_Images\book2_ImgID1.png"/>
  </g>
  <path class="fil2" d="M2653 1224l-134 0 0 -891 193 0 125 641 121 -641 184 0 0 891 -134 0 0 -560 -117 560 -108 0 -130 -558 0 558zm754 -205l-33 205 -140 0 151 -890 185 0 149 890 -141 0 -31 -205 -140 0zm70 -481l-50 350 100 0 -50 -350zm547 697c-59,0 -109,-21 -151,-63 -41,-41 -62,-91 -62,-149l0 -486c0,-59 21,-110 63,-151 41,-41 91,-62 150,-62 59,0 109,21 150,62 42,42 62,92 62,151l0 102 -139 0 0 -105c0,-21 -7,-39 -23,-54 -15,-16 -33,-23 -54,-23 -22,0 -40,7 -55,23 -14,15 -22,33 -22,54l0 487c0,22 8,40 22,55 15,14 33,22 55,22 21,0 39,-8 54,-22 16,-15 23,-33 23,-54l0 -175 -75 0 0 -135 214 0 0 311c0,59 -21,109 -62,150 -42,41 -92,62 -150,62zm439 -11l-134 0 0 -890 134 0 0 890zm306 11c-59,0 -109,-21 -151,-62 -41,-42 -62,-92 -62,-150l0 -486c0,-59 21,-110 63,-151 41,-41 91,-62 150,-62 59,0 109,21 150,62 42,42 62,92 62,151l0 102 -139 0 0 -105c0,-21 -7,-39 -23,-54 -15,-16 -33,-23 -54,-23 -22,0 -40,7 -55,23 -14,15 -22,33 -22,54l0 487c0,22 8,40 22,55 15,14 33,22 55,22 21,0 39,-8 54,-22 16,-15 23,-33 23,-55l0 -122 139 0 0 124c0,59 -21,109 -62,150 -42,41 -92,62 -150,62z"/>
  <path class="fil2" d="M955 1447c59,0 110,21 151,62 41,42 62,92 62,151l0 486c0,59 -21,109 -62,151 -42,41 -92,62 -151,62 -59,0 -109,-21 -150,-63 -41,-41 -62,-91 -62,-150l0 -486c0,-59 21,-110 63,-151 41,-41 91,-62 149,-62zm73 211c0,-22 -7,-40 -22,-55 -15,-15 -33,-22 -55,-22 -21,0 -39,7 -54,22 -15,15 -23,33 -23,55l0 486c0,22 8,40 23,55 15,14 33,22 54,22 22,0 40,-8 55,-22 15,-15 22,-33 22,-55l0 -486zm367 690l-134 0 0 -891 382 0 0 135 -248 0 0 243 181 0 0 135 -181 0 0 378zm737 -890c65,0 117,21 156,62 36,39 54,89 54,150l0 130c0,58 -20,109 -61,150 -41,42 -91,63 -149,63l-78 0 0 335 -134 0 0 -890 212 0zm80 214c0,-23 -7,-42 -21,-56 -14,-14 -33,-21 -56,-21l-81 0 0 285 81 0c22,0 40,-8 55,-23 15,-15 22,-33 22,-55l0 -130zm402 303l-180 -518 148 0 99 320 99 -320 148 0 -180 518 0 373 -134 0 0 -373zm550 -382l-143 0 0 -135 419 0 0 135 -142 0 0 755 -134 0 0 -755zm502 378l0 377 -134 0 0 -890 134 0 0 378 162 0 0 -378 134 0 0 890 -134 0 0 -377 -162 0zm601 -524c59,0 110,21 151,62 41,42 62,92 62,151l0 486c0,59 -21,109 -62,151 -42,41 -92,62 -151,62 -59,0 -109,-21 -150,-63 -41,-41 -62,-91 -62,-150l0 -486c0,-59 21,-110 63,-151 41,-41 91,-62 149,-62zm73 211c0,-22 -7,-40 -22,-55 -15,-15 -33,-22 -55,-22 -21,0 -39,7 -54,22 -15,15 -23,33 -23,55l0 486c0,22 8,40 23,55 15,14 33,22 54,22 22,0 40,-8 55,-22 15,-15 22,-33 22,-55l0 -486zm384 -201l178 598 0 -598 134 0 0 891 -144 0 -185 -570 0 570 -134 0 0 -891 151 0zm722 891l-134 0 0 -891 382 0 0 135 -248 0 0 243 181 0 0 135 -181 0 0 378zm553 -901c59,0 110,21 151,62 41,42 62,92 62,151l0 486c0,59 -21,109 -62,151 -42,41 -92,62 -151,62 -59,0 -109,-21 -150,-63 -41,-41 -62,-91 -62,-150l0 -486c0,-59 21,-110 63,-151 41,-41 91,-62 149,-62zm73 211c0,-22 -7,-40 -22,-55 -15,-15 -33,-22 -55,-22 -21,0 -39,7 -54,22 -15,15 -23,33 -23,55l0 486c0,22 8,40 23,55 15,14 33,22 54,22 22,0 40,-8 55,-22 15,-15 22,-33 22,-55l0 -486zm445 -200c75,0 130,21 165,62 31,36 46,86 46,150l0 130c0,63 -24,116 -72,159l99 389 -144 0 -82 -335c-4,0 -8,0 -12,0l-78 0 0 335 -134 0 0 -890 212 0zm80 214c0,-51 -26,-77 -77,-77l-81 0 0 285 81 0c22,0 40,-8 55,-23 15,-15 22,-33 22,-55l0 -130z"/>
  <path class="fil2" d="M1564 3473l0 -891 201 0c53,0 101,14 143,42 37,24 63,60 78,110 9,26 13,58 13,94 0,60 -16,108 -47,144 -14,15 -29,27 -47,35 30,11 55,34 76,67 13,23 24,52 30,88 3,19 5,39 5,62 0,57 -11,104 -32,144 -16,31 -40,55 -70,74 -34,20 -68,31 -102,31l-248 0zm145 -133l56 0c45,0 76,-23 94,-70 6,-16 9,-35 9,-56 0,-49 -9,-85 -28,-108 -17,-21 -42,-31 -75,-31l-56 0 0 265zm0 -394l56 0c41,0 69,-21 83,-61 5,-16 8,-34 8,-57 0,-37 -9,-65 -27,-84 -16,-17 -38,-26 -64,-26l-56 0 0 228zm400 527l0 -891 382 0 0 135 -248 0 0 243 181 0 0 135 -181 0 0 243 248 0 0 135 -382 0zm688 11c-59,0 -109,-21 -151,-63 -41,-41 -62,-91 -62,-149l0 -486c0,-59 21,-110 63,-151 41,-41 91,-62 150,-62 59,0 109,21 150,62 42,42 62,92 62,151l0 102 -139 0 0 -105c0,-21 -7,-39 -23,-54 -15,-16 -33,-23 -54,-23 -22,0 -40,7 -55,23 -14,15 -22,33 -22,54l0 487c0,22 8,40 22,55 15,14 33,22 55,22 21,0 39,-8 54,-22 16,-15 23,-33 23,-54l0 -175 -75 0 0 -135 214 0 0 311c0,59 -21,109 -62,150 -42,41 -92,62 -150,62zm439 -11l-134 0 0 -890 134 0 0 890zm244 -891l178 598 0 -598 134 0 0 891 -144 0 -185 -570 0 570 -134 0 0 -891 151 0zm555 0l178 598 0 -598 134 0 0 891 -144 0 -185 -570 0 570 -134 0 0 -891 151 0zm404 891l0 -891 382 0 0 135 -248 0 0 243 181 0 0 135 -181 0 0 243 248 0 0 135 -382 0zm687 -890c75,0 130,21 165,62 31,36 46,86 46,150l0 130c0,63 -24,116 -72,159l99 389 -144 0 -82 -335c-4,0 -8,0 -12,0l-78 0 0 335 -134 0 0 -890 212 0zm80 214c0,-51 -26,-77 -77,-77l-81 0 0 285 81 0c22,0 40,-8 55,-23 15,-15 22,-33 22,-55l0 -130zm695 455c1,62 -15,115 -48,159 -22,30 -53,51 -93,63 -21,7 -46,10 -74,10 -53,0 -96,-13 -131,-39 -29,-22 -52,-51 -68,-87 -17,-37 -27,-79 -30,-127l128 -9c6,52 19,90 41,113 16,18 35,26 55,25 30,-1 53,-15 71,-43 9,-14 13,-34 13,-59 0,-37 -17,-74 -50,-111 -27,-25 -67,-62 -120,-113 -44,-43 -76,-81 -94,-115 -20,-39 -30,-80 -30,-125 0,-81 27,-143 82,-184 33,-26 75,-38 125,-38 48,0 89,11 123,32 26,16 48,40 64,69 16,30 26,64 30,103l-129 24c-4,-37 -15,-65 -32,-85 -12,-15 -30,-22 -53,-22 -25,0 -43,11 -56,33 -11,17 -16,39 -16,65 0,41 18,82 53,124 13,16 33,35 60,57 31,26 52,44 62,55 33,33 58,65 76,98 9,15 16,29 21,42 13,31 20,60 20,85z"/>
  <path class="fil2" d="M3208 10483l0 -430 65 0 0 198 66 -198 68 0 -72 212 77 218 -69 0 -69 -201 0 201 -66 0zm241 0l0 -60 55 0 0 60 -55 0zm174 0l-67 -430 63 0 28 194 17 137 2 0 15 -137 23 -194 61 0 -61 430 -81 0zm300 -199c-20,9 -34,18 -41,26 -8,8 -11,21 -11,38l0 39c0,17 2,29 5,37 4,7 10,11 18,11 8,0 14,-3 19,-8 6,-6 9,-12 10,-19l0 -124zm-51 202c-24,0 -41,-8 -51,-25 -10,-18 -16,-42 -16,-74l0 -24c0,-31 8,-55 25,-71 11,-11 30,-21 56,-31 4,-2 11,-4 19,-7 9,-3 15,-5 18,-7l0 -32c0,-19 -1,-33 -4,-40 -3,-7 -10,-11 -20,-11 -10,0 -17,4 -20,12 -4,7 -5,20 -5,37l0 17 -64 0 0 -11c0,-35 6,-61 19,-80 13,-18 36,-27 69,-27 33,0 56,9 70,27 14,19 21,46 21,82l0 262 -65 0 0 -37c-3,12 -9,21 -19,29 -9,8 -20,11 -33,11zm302 -374c42,0 64,28 64,82l0 289 -65 0 0 -285c0,-10 -3,-19 -7,-25 -5,-6 -12,-9 -21,-9 -9,0 -17,4 -22,12 -5,8 -8,18 -8,32l0 275 -64 0 0 -367 64 0 0 42c3,-13 10,-24 21,-32 11,-9 24,-14 38,-14zm126 371l0 -367 65 0 0 367 -65 0zm0 -400l0 -56 65 0 0 56 -65 0z"/>
  <g id="_425865640">
   <image x="532" y="324" width="6989" height="9367" xlink:href="book2_Images\book2_ImgID2.png"/>
  </g>
  <g id="_425865280">
   <image x="532" y="324" width="6989" height="9367" xlink:href="book2_Images\book2_ImgID3.png"/>
  </g>
  <g id="_425865712">
   <image x="532" y="324" width="6989" height="9367" xlink:href="book2_Images\book2_ImgID4.png"/>
  </g>
  <g id="_425865760">
   <image x="532" y="324" width="6989" height="9367" xlink:href="book2_Images\book2_ImgID5.png"/>
  </g>
  <g id="_425864752">
   <image x="532" y="324" width="6989" height="9367" xlink:href="book2_Images\book2_ImgID6.png"/>
  </g>
  <g id="_425864488">
   <image x="532" y="324" width="6989" height="9367" xlink:href="book2_Images\book2_ImgID7.png"/>
  </g>
  <g id="_425864536">
   <image x="532" y="324" width="6989" height="9367" xlink:href="book2_Images\book2_ImgID8.png"/>
  </g>
  <g id="_425864656">
   <image x="532" y="324" width="6989" height="9367" xlink:href="book2_Images\book2_ImgID9.png"/>
  </g>
  <g id="_425863984">
   <image x="532" y="324" width="6989" height="9367" xlink:href="book2_Images\book2_ImgID10.png"/>
  </g>
  <g id="_425864224">
   <image x="532" y="324" width="6989" height="9367" xlink:href="book2_Images\book2_ImgID11.png"/>
  </g>
  <g id="_425864248">
   <image x="532" y="324" width="6989" height="9367" xlink:href="book2_Images\book2_ImgID12.png"/>
  </g>
  <g id="_425863336">
   <image x="532" y="324" width="6989" height="9367" xlink:href="book2_Images\book2_ImgID13.png"/>
  </g>
  <g id="_425863312">
   <image x="532" y="324" width="6989" height="9367" xlink:href="book2_Images\book2_ImgID14.png"/>
  </g>
  <g id="_425863000">
   <image x="532" y="324" width="6989" height="9367" xlink:href="book2_Images\book2_ImgID15.png"/>
  </g>
  <g id="_425863624">
   <image x="532" y="324" width="6989" height="9367" xlink:href="book2_Images\book2_ImgID16.png"/>
  </g>
  <path class="fil3" d="M1502 4282c377,0 683,306 683,683 0,118 -30,230 -83,327l909 748c198,-208 478,-337 787,-337 303,0 577,123 774,323l940 -731c-80,-112 -126,-248 -126,-396 0,-377 306,-683 683,-683 378,0 683,306 683,683 0,378 -305,684 -683,684 -172,0 -329,-64 -449,-169l-944 734c132,180 210,402 210,642 0,23 -1,46 -2,69 14,0 28,0 43,1 71,1 142,3 213,5 99,3 198,6 297,9 17,-259 233,-464 497,-464 276,0 499,223 499,499 0,275 -223,499 -499,499 -233,0 -428,-160 -483,-376l-16 3c-100,-3 -200,-6 -300,-9 -64,-2 -129,-4 -193,-5 -12,-1 -23,-1 -34,-1l-46 -1c-58,267 -213,498 -428,653 105,173 211,345 317,517 104,-64 226,-101 357,-101 377,0 683,306 683,684 0,377 -306,683 -683,683 -377,0 -683,-306 -683,-683 0,-189 76,-359 199,-483l-8 -12c-106,-174 -213,-347 -319,-521 -149,78 -319,122 -499,122 -481,0 -890,-314 -1033,-747 -4,0 -8,1 -11,2 -26,4 -51,7 -76,11 -72,11 -144,22 -217,33 -109,16 -218,32 -327,49l-3 0c1,5 1,10 1,14 0,268 -218,486 -486,486 -268,0 -485,-218 -485,-486 0,-268 217,-485 485,-485 208,0 385,130 454,313l11 -1c109,-16 218,-33 327,-49 70,-10 140,-21 210,-32 26,-3 53,-7 78,-11 -10,-60 -15,-122 -15,-185 0,-233 73,-449 198,-626l-900 -741c-125,138 -306,225 -507,225 -378,0 -684,-306 -684,-683 0,-377 306,-683 684,-683zm2510 3078c102,-30 124,115 38,139 -97,27 -133,-111 -38,-139zm193 -104c-89,-19 -337,17 -410,-6l0 -51c52,-14 423,-3 508,-3 99,0 142,6 212,-45 43,-31 79,-87 102,-156 60,-180 38,-483 -122,-589 -63,-41 -150,-30 -232,-30 3,149 9,333 -117,401 -159,86 -539,-4 -662,68 -111,65 -95,172 -95,324 0,70 0,140 0,209 0,76 13,119 55,156 177,159 753,125 762,-75 2,-57 3,-146 -1,-203zm-652 -1175c96,-26 119,115 32,140 -92,27 -139,-111 -32,-140zm-160 245l410 0 0 58c-164,8 -345,1 -511,1 -92,0 -149,-6 -211,46 -45,37 -76,82 -102,156 -60,173 -37,484 122,587 66,42 147,31 233,31 -3,-124 -11,-274 52,-365 104,-150 570,-16 723,-112 106,-67 98,-163 98,-317 0,-56 8,-256 -10,-301 -14,-35 -21,-38 -43,-61 -149,-160 -751,-132 -763,71 -2,44 -4,166 2,206zm2603 939c4,-5 8,-8 13,-13 19,-20 70,-92 75,-113l43 20c8,4 37,20 41,25 -9,13 -59,43 -76,51 -20,10 -73,29 -96,30zm-295 -81c3,-4 13,-9 19,-13 6,-4 12,-7 20,-11l45 -21c3,12 30,56 38,67 8,10 16,21 24,31l25 28c-11,0 -40,-9 -50,-12 -31,-10 -59,-23 -85,-41 -9,-5 -32,-21 -36,-28zm247 86l0 -158c63,0 90,15 111,17 -18,33 -37,66 -62,94 -3,3 -5,5 -8,8 -6,8 -34,37 -41,39zm-138 -141l49 -11c22,-4 38,-6 62,-6l0 158c-10,-3 -40,-37 -49,-46l-14 -17c-5,-7 -8,-11 -12,-18 -3,-4 -5,-5 -7,-9l-29 -51zm-49 -197l0 -10 160 0 0 162c-29,0 -66,5 -93,12 -10,3 -21,7 -30,8 -4,-16 -16,-41 -25,-80 -5,-27 -12,-59 -12,-92zm309 172c-8,-1 -19,-5 -28,-7 -9,-3 -19,-5 -29,-7 -17,-3 -45,-6 -65,-6l0 -162 159 0c0,55 -11,112 -30,162 -2,7 -5,13 -7,20zm120 60c-5,-1 -6,-3 -11,-6 -33,-24 -51,-29 -83,-44 23,-48 40,-138 40,-192l159 0c0,79 -35,164 -84,220 -7,8 -13,16 -21,22zm-617 -242l160 0c0,54 17,143 40,192 -34,16 -48,19 -83,43 -4,3 -6,6 -11,7 -16,-10 -47,-53 -57,-72 -27,-50 -49,-102 -49,-170zm375 -161c21,0 50,-4 69,-8 18,-3 59,-15 62,-16 4,10 7,22 11,33 11,39 17,83 17,125l-159 0 0 -134zm-187 124c0,-32 9,-83 18,-113 3,-12 6,-25 11,-35 3,1 43,13 61,16 20,4 48,8 70,8l0 134 -160 0 0 -10zm345 -159c23,-2 97,-56 100,-57l33 45c16,27 15,23 28,52 14,33 28,83 28,129l-159 0c0,-93 -27,-146 -30,-169zm-373 169l-160 0c0,-81 34,-155 81,-215 3,-4 7,-6 8,-11 5,1 7,4 11,7 5,3 8,5 12,8 9,6 16,11 25,16 9,5 43,25 53,26l-11 37c-4,14 -7,27 -10,41 -5,25 -9,61 -9,91zm215 -163l0 -184c10,2 39,36 45,42 18,19 38,50 51,73 11,17 17,32 25,48 -26,12 -90,21 -121,21zm-27 -184l0 184c-32,0 -95,-9 -121,-21 15,-28 16,-38 37,-69 23,-36 41,-59 73,-86 5,-5 5,-7 11,-8zm75 5c14,0 45,10 57,14 18,6 34,13 49,21 8,4 15,8 23,13 13,8 52,36 60,47 -7,10 -76,51 -91,52l-10 -20c-3,-10 -6,-12 -10,-20 -17,-36 -38,-61 -62,-91 -5,-6 -11,-10 -16,-16zm-221 147c-16,-1 -84,-42 -91,-52 11,-17 64,-50 81,-60 24,-12 81,-35 107,-35 -4,6 -10,9 -15,15 -22,27 -46,58 -62,90 -4,8 -7,12 -11,20 -3,8 -6,15 -9,22zm-257 197c0,74 10,129 38,187 11,23 22,44 37,64l33 42c12,11 8,10 19,19 3,2 4,3 7,6 61,63 176,110 269,110 73,0 131,-9 190,-38 34,-17 78,-44 105,-71 12,-12 7,-4 19,-19 12,-15 21,-21 40,-48 42,-60 76,-145 76,-227 0,-74 -10,-131 -39,-190 -16,-33 -43,-78 -71,-105 -12,-12 -4,-7 -18,-19 -15,-12 -22,-21 -49,-40 -60,-43 -144,-76 -228,-76 -74,0 -129,10 -187,38 -33,16 -80,44 -106,71 -12,13 -8,5 -19,19l-19 20c-57,64 -97,166 -97,257zm-318 2303c9,-1 6,-2 16,-2l3 45 -17 0 -2 -43zm84 -80c1,-16 25,-118 25,-136l78 -28c-6,26 -27,70 -41,92 -13,22 -41,61 -62,72zm-492 -307c0,-28 9,-55 36,-55 0,93 47,196 48,207 -11,1 -11,3 -23,-2 -5,-2 -13,-8 -17,-12 -4,-4 -9,-13 -12,-17 -18,-27 -32,-83 -32,-121zm73 -57c0,-9 10,-37 13,-44 12,-30 29,-67 60,-82 55,-25 130,41 189,46l0 351c-6,-3 -52,-7 -64,-7 -9,0 -9,9 -9,14 0,14 42,14 60,15 13,2 13,0 13,14 0,35 0,70 0,105 -63,-5 -117,-52 -153,-100 -60,-81 -109,-213 -109,-312zm519 -208l2 3c2,3 1,1 3,4 22,38 43,110 34,146l-25 -22c-15,-13 -14,-10 -14,-35 1,-32 0,-64 0,-96zm-91 85c0,-10 16,-10 16,0 0,9 -16,9 -16,0zm-73 -94c0,-9 16,-9 16,0 0,10 -16,10 -16,0zm21 -107c19,5 39,19 48,21l0 152c-12,3 -23,19 -20,33 8,35 57,35 64,0 2,-13 -6,-29 -19,-33l0 -134c8,6 13,10 20,16 8,5 14,11 20,19 10,12 5,54 5,72 0,52 0,103 0,155 3,2 8,7 9,7 21,0 16,-19 16,-39 21,14 19,18 39,32 0,43 -8,107 -17,149 -3,15 -9,34 -10,47l-99 33c-11,6 -11,18 -14,32 -3,17 -28,136 -28,149 -13,3 -47,25 -92,25l0 -118c13,0 25,-2 38,-4 12,-2 31,0 31,-12 0,-25 -28,-9 -69,-9l0 -356c0,-7 11,-10 17,-13l40 -19c4,-2 7,-3 11,-5 6,-2 5,-3 10,-6l0 -59c25,-7 25,-48 0,-55l0 -80zm-25 135l0 45c-17,9 -36,16 -53,25l0 -221c19,0 36,7 53,7l0 82c0,10 -17,12 -19,31 -2,14 7,28 19,31zm-360 -101c0,30 28,27 35,10 4,-12 2,-89 68,-141 27,-21 47,-27 84,-34 40,-8 71,-34 84,-37l0 376 -44 -16c-21,-9 -22,-6 -31,-28 -38,-98 4,-155 -34,-155 -5,0 -13,5 -16,8 -4,6 -2,13 -3,22 -4,94 12,97 14,125 -23,-5 -39,-62 -41,-82 0,-8 1,-11 -3,-17 -10,-16 -33,-13 -33,10 0,80 46,76 5,84 -27,5 -54,32 -68,54 -6,9 -11,17 -16,26 -5,9 -7,22 -15,28 -5,-23 -11,-36 -17,-65 -15,-76 -9,-177 8,-250 12,8 23,18 34,25 -4,17 -11,38 -11,57zm27 -93c-20,-5 -39,-41 -73,-21 -9,6 -11,12 -13,24 -21,105 -26,205 4,310 3,10 11,30 11,38 -27,2 -45,32 -51,57 -21,87 40,221 102,221l31 -2c3,12 21,42 29,53 16,25 32,49 53,70 19,18 37,114 6,169 -20,36 15,43 27,25 18,-23 30,-77 26,-105 -2,-10 -4,-32 -4,-41 67,35 67,34 144,34 0,37 7,73 7,109 6,5 4,7 13,7 17,0 9,-29 9,-53 12,0 39,0 39,-11 0,-14 -1,-61 -4,-68 6,-2 17,-7 22,-9 -2,31 -8,39 0,79 18,80 60,81 60,48 0,-14 -28,-32 -28,-84 0,-83 28,-77 70,-135l16 -25c10,-19 19,-36 28,-57 30,-78 53,-190 53,-278 0,-93 -3,-135 -58,-216 -27,-39 -78,-82 -121,-102 -27,-12 -80,-30 -118,-30l0 -144c0,-13 -7,-20 -20,-20 -10,0 -27,12 -34,16 -86,49 -63,24 -115,43 -23,8 -32,13 -50,26 -18,13 -56,53 -61,72zm328 449c0,-80 108,-93 134,-32 23,54 -13,102 -59,102 -45,0 -75,-27 -75,-70zm-25 0c0,50 45,96 96,96 78,0 131,-99 67,-163 -65,-64 -163,-9 -163,67zm-248 11c0,14 12,25 25,25l89 0c30,0 37,-54 -7,-54l-75 0c-19,0 -32,10 -32,29zm-34 -68c0,37 28,17 44,13 64,-19 123,10 127,10 19,0 18,-16 18,-23 0,-25 -87,-30 -107,-30 -23,0 -82,12 -82,30zm373 32l9 0c30,0 32,52 -4,52 -36,0 -33,-52 -5,-52zm-45 20c0,77 96,70 101,9 3,-28 -25,-54 -44,-54 -17,0 -26,-1 -43,14 -6,7 -14,19 -14,31zm672 -4147c0,-51 74,-50 74,0 0,46 -74,49 -74,0zm-257 -100l45 47c27,-18 51,-37 77,-54l63 61c-20,39 -2,84 -2,90 0,2 -55,56 -61,60 -7,-4 -12,-7 -20,-12l-47 -34c-4,-2 -6,-5 -9,-7l-46 44 123 125 116 -115c72,32 108,-5 125,-8l156 0 -37 61c-7,10 -12,20 -19,30l-55 91c-7,10 -12,20 -19,30 -54,83 -118,199 -170,276l339 0 83 -144c4,-6 11,-17 12,-23l-51 -82 25 -40c9,-15 17,-27 26,-41l37 -61c5,-8 10,-13 12,-22 -56,0 -83,-12 -123,-44 -28,-22 -56,-77 -56,-114 0,-37 0,-60 18,-94 4,-9 8,-11 10,-20 -45,0 -90,0 -135,0 -19,0 -49,4 -64,-3 -35,-16 -26,-16 -70,-16 -20,0 -29,8 -44,12l-116 -115 -123 122zm636 102c0,-56 63,-82 99,-46 58,57 -26,139 -81,84 -10,-10 -18,-27 -18,-38zm-88 -16c0,53 7,83 45,121 54,54 145,56 207,-2 63,-58 67,-179 -36,-238 -52,-30 -126,-18 -173,25 -4,4 -4,5 -7,9 -4,4 -4,5 -8,9 -5,7 -9,13 -13,21 -6,13 -15,38 -15,55zm-451 694l539 0 0 -76 -497 0c-3,10 -15,27 -21,38 -5,10 -19,29 -21,38zm597 -680c0,5 4,0 1,0 0,0 -1,-7 -1,0zm-4564 2560c37,-20 61,40 25,53 -35,13 -57,-35 -25,-53zm-336 -97c35,-8 64,18 71,46 7,34 -17,65 -44,71 -78,17 -103,-99 -27,-117zm403 33c36,-18 54,39 24,52 -34,15 -65,-32 -24,-52zm-127 -1c36,-16 52,39 24,53 -34,17 -65,-34 -24,-53zm66 -64c36,-14 52,43 18,54 -34,11 -61,-37 -18,-54zm-248 262c42,-6 115,-4 161,-3 54,1 101,2 128,34 24,29 47,64 84,80 55,25 70,-25 74,-72 7,-81 -24,-207 -49,-274 -30,-82 -78,-152 -190,-120 -159,45 -200,-28 -280,-3 -77,24 -105,111 -127,199 -15,59 -53,235 1,270 38,25 89,-29 102,-44 28,-33 35,-57 96,-67zm-102 -2827c-63,6 -124,16 -178,37 -55,23 -96,71 -36,110 192,123 738,33 564,-91 -72,-52 -250,-64 -350,-56zm-108 722l139 0 0 138 97 0 -1 -138 138 0 0 -97 -138 0 1 -138 -97 0 0 138 -139 0 0 97zm-137 -540l1 99c153,118 524,102 614,10 21,-22 17,-77 10,-108 -36,64 -385,149 -625,-1zm2 151c-13,89 -5,107 67,136 50,21 105,36 166,41l0 -62 178 0 -1 62c73,-9 195,-36 216,-89l0 -87c-139,116 -490,108 -626,-1zm95 296l0 -45c27,0 53,0 80,0 53,1 52,4 59,-12 -10,-18 -1,-9 -32,-15 -96,-18 -111,-19 -204,-75l0 98 97 49zm459 -6c79,-39 76,-29 71,-141 -101,71 -177,67 -197,75 -26,9 -14,-8 -18,22 22,12 105,5 131,5l13 39z"/>
 </g>
</svg>
